<svg xmlns="http://www.w3.org/2000/svg" viewBox="0 0 197.39 170"><defs><style>.cls-1{fill:#fff;}</style></defs><g id="Layer_2" data-name="Layer 2"><g id="Layer_1-2" data-name="Layer 1"><path class="cls-1" d="M160.08,44.26c0,14.08.12,28.17,0,42.25-.11,9.53-8.11,15.44-16.49,12.35-5.81-2.14-8.28-6.64-8.27-12.69,0-14,0-27.89,0-43.37-5.91,5.85-10.78,10.94-15.93,15.73-7.21,6.68-17.74,4.17-20.7-4.79a11.51,11.51,0,0,1,2.9-12.36C114.1,28.68,126.66,16,139.44,3.53c4.93-4.8,11.82-4.68,16.8.2q18.93,18.52,37.44,37.48a12.24,12.24,0,0,1-.17,17.72c-4.91,4.68-12,4.74-17.3-.27s-9.89-10.09-14.82-15.16Z"/><path class="cls-1" d="M70,53A84.61,84.61,0,0,1,88.51.09C87.34,0,86.18,0,85,0h0A85,85,0,0,0,0,85H0a85,85,0,0,0,85,85h0a84.82,84.82,0,0,0,66.5-32.09A85,85,0,0,1,70,53Z"/></g></g></svg>