<svg xmlns="http://www.w3.org/2000/svg" viewBox="0 0 197.39 170"><defs><style>.cls-1{fill:#fff;}</style></defs><g id="Layer_2" data-name="Layer 2"><g id="Layer_1-2" data-name="Layer 1"><path class="cls-1" d="M135.27,55.43c0-14.09-.12-28.17,0-42.25.12-9.53,8.12-15.45,16.49-12.35,5.82,2.14,8.28,6.64,8.27,12.69,0,14,0,27.89,0,43.37C166,51,170.84,45.94,176,41.16c7.2-6.68,17.74-4.17,20.7,4.79a11.55,11.55,0,0,1-2.9,12.36C181.26,71,168.7,83.7,155.91,96.16c-4.93,4.8-11.81,4.68-16.8-.2q-18.93-18.52-37.43-37.48a12.23,12.23,0,0,1,.16-17.72c4.92-4.68,12-4.74,17.31.27C124.26,45.89,129,51.12,134,56.19Z"/><path class="cls-1" d="M70,53A84.61,84.61,0,0,1,88.51.09C87.34,0,86.18,0,85,0h0A85,85,0,0,0,0,85H0a85,85,0,0,0,85,85h0a84.82,84.82,0,0,0,66.5-32.09A85,85,0,0,1,70,53Z"/></g></g></svg>