<svg xmlns="http://www.w3.org/2000/svg" viewBox="0 0 128.71 114.48"><defs><style>.cls-1{fill:#fff;}</style></defs><g id="Layer_2" data-name="Layer 2"><g id="Layer_1-2" data-name="Layer 1"><path class="cls-1" d="M102.19,96.56c-.12,0-.25,0-.37,0-6.63.67-11.21-.66-15.83-7.07-11.92-16.56-37.31-14-47.19,4-1.35,2.45-2.79,3.25-5.49,3.15-5.59-.21-11.2.09-16.79-.17a6.7,6.7,0,0,1-4.15-2.2,48,48,0,0,1-4.45-6.43c-2.14-3.36-1.31-5.35,2.56-6.06,6.84-1.25,13.66-2.6,20.54-3.59,2.38-.34,3.08-1.38,3.43-3.49,1.1-6.62,2.33-13.22,3.56-19.82.91-4.91,2.73-5.67,6.81-2.88C50,55.5,55.17,58.9,60.13,62.64c2.67,2,4.62,2.37,7.46.14C72.48,59,77.76,55.62,82.88,52.09c4.25-2.92,6.06-2.14,7,3,1.13,6.37,2.27,12.74,3.27,19.13.37,2.32,1,3.62,3.8,4,6.76.9,13.46,2.3,20.18,3.52,4.18.77,5,2.71,2.79,6.18a2.82,2.82,0,0,0-.21.31C116.22,96,110.24,98.44,102.19,96.56Z"/><path class="cls-1" d="M64.4,104.11h57.47c4.68,0,6.81,1.56,6.84,4.94s-2.36,5.42-6.92,5.42q-57.46,0-114.93,0c-.37,0-.75,0-1.12,0C2.19,114.32-.07,112.15,0,109c.07-3,2.22-4.85,5.81-4.86Q35.11,104.09,64.4,104.11Z"/><path class="cls-1" d="M71.22,21.47c0,7.56,0,14,0,20.46,0,5.19-2.36,7.8-6.87,7.8s-6.81-2.66-6.86-7.88c-.06-6.42,0-12.84,0-20.17-2.66,1.94-4.6,3.38-6.57,4.78-3.69,2.65-7.32,2.34-9.89-.83s-2.06-7,1.4-9.89C48.15,11,54,6.36,59.87,1.75c2.89-2.28,6-2.36,8.9-.07,6,4.68,11.94,9.36,17.76,14.21,3.38,2.83,3.64,6.84,1,9.92-2.46,2.91-6.19,3.26-9.66.8C75.9,25.19,74,23.63,71.22,21.47Z"/><path class="cls-1" d="M81.88,96.39H46.08a19.21,19.21,0,0,1,15.26-10C69.81,85.45,76.57,88.64,81.88,96.39Z"/></g></g></svg>