<svg xmlns="http://www.w3.org/2000/svg" viewBox="0 0 128.71 112.48"><defs><style>.cls-1{fill:#fff;}</style></defs><g id="Layer_2" data-name="Layer 2"><g id="Layer_1-2" data-name="Layer 1"><path class="cls-1" d="M102.19,94.56c-.12,0-.25,0-.37,0-6.63.67-11.21-.66-15.83-7.07-11.92-16.56-37.31-14-47.19,4-1.35,2.45-2.79,3.25-5.49,3.15-5.59-.21-11.2.09-16.79-.17a6.7,6.7,0,0,1-4.15-2.2,48,48,0,0,1-4.45-6.43c-2.14-3.36-1.31-5.35,2.56-6.06,6.84-1.25,13.66-2.6,20.54-3.59,2.38-.34,3.08-1.38,3.43-3.49,1.1-6.62,2.33-13.22,3.56-19.82.91-4.91,2.73-5.67,6.81-2.88C50,53.5,55.17,56.9,60.13,60.64c2.67,2,4.62,2.37,7.46.14C72.48,57,77.76,53.62,82.88,50.09c4.25-2.92,6.06-2.14,7,3,1.13,6.37,2.27,12.74,3.27,19.13.37,2.32,1,3.62,3.8,4,6.76.9,13.46,2.3,20.18,3.52,4.18.77,5,2.71,2.79,6.18a2.82,2.82,0,0,0-.21.31C116.22,94,110.24,96.44,102.19,94.56Z"/><path class="cls-1" d="M64.4,102.11h57.47c4.68,0,6.81,1.56,6.84,4.94s-2.36,5.42-6.92,5.42q-57.46,0-114.93,0c-.37,0-.75,0-1.12,0C2.19,112.32-.07,110.15,0,107c.07-3,2.22-4.85,5.81-4.86Q35.11,102.09,64.4,102.11Z"/><path class="cls-1" d="M57.53,28.26c0-7.57,0-14,0-20.46C57.56,2.61,59.9,0,64.41,0s6.8,2.65,6.85,7.88c.07,6.42,0,12.84,0,20.16,2.65-1.93,4.6-3.37,6.57-4.78,3.69-2.65,7.32-2.33,9.89.84s2.05,7-1.41,9.89c-5.73,4.77-11.59,9.38-17.46,14-2.89,2.27-6,2.36-8.89.07C54,43.37,48,38.69,42.22,33.84c-3.39-2.83-3.64-6.84-1-9.93,2.46-2.91,6.2-3.25,9.67-.79C52.85,24.53,54.74,26.1,57.53,28.26Z"/><path class="cls-1" d="M81.88,94.39H46.08a19.21,19.21,0,0,1,15.26-10C69.81,83.45,76.57,86.64,81.88,94.39Z"/></g></g></svg>